name ./resultDataOpenSim/trcMotMarkerGrf/sub10/grf-03-04.mot
datacolumns 19
datarows 17
range 0.52000000 0.58400000
endheader

                time	     ground_force_vx	     ground_force_vy	     ground_force_vz	     ground_force_px	     ground_force_py	     ground_force_pz	   l_ground_force_vx	   l_ground_force_vy	   l_ground_force_vz	   l_ground_force_px	   l_ground_force_py	   l_ground_force_pz	     ground_torque_x	     ground_torque_y	     ground_torque_z	   l_ground_torque_x	   l_ground_torque_y	   l_ground_torque_z	
          0.52000000	          2.85949328	        494.44542586	        -11.98191859	         -0.74875572	          0.00000000	          0.04940044	          0.00000000	          0.00000000	          0.00000000	          0.00000000	          0.00000000	          0.00000000	          0.00000000	          0.98953723	          0.00000000	          0.00000000	          0.00000000	          0.00000000	
          0.52400000	          3.47532612	        491.88165409	        -12.87858739	         -0.74781984	          0.00000000	          0.04950857	          0.00000000	          0.00000000	          0.00000000	          0.00000000	          0.00000000	          0.00000000	          0.00000000	          1.01496994	          0.00000000	          0.00000000	          0.00000000	          0.00000000	
          0.52800000	          4.74789684	        489.49604572	        -13.73212418	         -0.74696034	          0.00000000	          0.04963403	          0.00000000	          0.00000000	          0.00000000	          0.00000000	          0.00000000	          0.00000000	          0.00000000	          1.03720676	          0.00000000	          0.00000000	          0.00000000	          0.00000000	
          0.53200000	          6.71379073	        487.29722626	        -14.39695286	         -0.74615446	          0.00000000	          0.04978646	          0.00000000	          0.00000000	          0.00000000	          0.00000000	          0.00000000	          0.00000000	          0.00000000	          1.06902821	          0.00000000	          0.00000000	          0.00000000	          0.00000000	
          0.53600000	          9.23891183	        485.38516131	        -14.78215434	         -0.74537660	          0.00000000	          0.04996485	          0.00000000	          0.00000000	          0.00000000	          0.00000000	          0.00000000	          0.00000000	          0.00000000	          1.11959447	          0.00000000	          0.00000000	          0.00000000	          0.00000000	
          0.54000000	         12.06653599	        483.92237099	        -14.87374283	         -0.74460898	          0.00000000	          0.05014825	          0.00000000	          0.00000000	          0.00000000	          0.00000000	          0.00000000	          0.00000000	          0.00000000	          1.19227059	          0.00000000	          0.00000000	          0.00000000	          0.00000000	
          0.54400000	         14.90388182	        483.07086397	        -14.73629046	         -0.74383600	          0.00000000	          0.05030746	          0.00000000	          0.00000000	          0.00000000	          0.00000000	          0.00000000	          0.00000000	          0.00000000	          1.28388732	          0.00000000	          0.00000000	          0.00000000	          0.00000000	
          0.54800000	         17.51524243	        482.94994500	        -14.49331894	         -0.74304266	          0.00000000	          0.05042623	          0.00000000	          0.00000000	          0.00000000	          0.00000000	          0.00000000	          0.00000000	          0.00000000	          1.38547758	          0.00000000	          0.00000000	          0.00000000	          0.00000000	
          0.55200000	         19.78523773	        483.63137129	        -14.29491267	         -0.74221659	          0.00000000	          0.05050833	          0.00000000	          0.00000000	          0.00000000	          0.00000000	          0.00000000	          0.00000000	          0.00000000	          1.48422952	          0.00000000	          0.00000000	          0.00000000	          0.00000000	
          0.55600000	         21.73670353	        485.15225272	        -14.28276763	         -0.74134389	          0.00000000	          0.05056758	          0.00000000	          0.00000000	          0.00000000	          0.00000000	          0.00000000	          0.00000000	          0.00000000	          1.56628854	          0.00000000	          0.00000000	          0.00000000	          0.00000000	
          0.56000000	         23.50865528	        487.52656389	        -14.55921330	         -0.74041590	          0.00000000	          0.05061358	          0.00000000	          0.00000000	          0.00000000	          0.00000000	          0.00000000	          0.00000000	          0.00000000	          1.61998692	          0.00000000	          0.00000000	          0.00000000	          0.00000000	
          0.56400000	         25.30439258	        490.74933994	        -15.16626418	         -0.73944509	          0.00000000	          0.05064932	          0.00000000	          0.00000000	          0.00000000	          0.00000000	          0.00000000	          0.00000000	          0.00000000	          1.63893004	          0.00000000	          0.00000000	          0.00000000	          0.00000000	
          0.56800000	         27.31942775	        494.79346790	        -16.07891382	         -0.73846093	          0.00000000	          0.05067970	          0.00000000	          0.00000000	          0.00000000	          0.00000000	          0.00000000	          0.00000000	          0.00000000	          1.62418452	          0.00000000	          0.00000000	          0.00000000	          0.00000000	
          0.57200000	         29.67016805	        499.60238268	        -17.21151439	         -0.73748545	          0.00000000	          0.05071373	          0.00000000	          0.00000000	          0.00000000	          0.00000000	          0.00000000	          0.00000000	          0.00000000	          1.58482874	          0.00000000	          0.00000000	          0.00000000	          0.00000000	
          0.57600000	         32.35292702	        505.08857465	        -18.43614422	         -0.73651554	          0.00000000	          0.05075860	          0.00000000	          0.00000000	          0.00000000	          0.00000000	          0.00000000	          0.00000000	          0.00000000	          1.53648103	          0.00000000	          0.00000000	          0.00000000	          0.00000000	
          0.58000000	         35.24739706	        511.14654024	        -19.61147252	         -0.73552949	          0.00000000	          0.05081615	          0.00000000	          0.00000000	          0.00000000	          0.00000000	          0.00000000	          0.00000000	          0.00000000	          1.49802283	          0.00000000	          0.00000000	          0.00000000	          0.00000000	
          0.58400000	         38.15667486	        517.67714583	        -20.61461391	         -0.73450290	          0.00000000	          0.05088129	          0.00000000	          0.00000000	          0.00000000	          0.00000000	          0.00000000	          0.00000000	          0.00000000	          1.48732147	          0.00000000	          0.00000000	          0.00000000	          0.00000000	
